<?xml version="1.0" encoding="UTF-8" standalone="no"?>
<svg
   version="1.2"
   viewBox="0 0 2048 2048"
   width="2048"
   height="2048"
   id="svg7"
   sodipodi:docname="Gemini_Generated_Image_1jbdsz1jbdsz1jbd.svg"
   inkscape:version="1.1 (c68e22c387, 2021-05-23)"
   xmlns:inkscape="http://www.inkscape.org/namespaces/inkscape"
   xmlns:sodipodi="http://sodipodi.sourceforge.net/DTD/sodipodi-0.dtd"
   xmlns="http://www.w3.org/2000/svg"
   xmlns:svg="http://www.w3.org/2000/svg">
  <defs
     id="defs11" />
  <sodipodi:namedview
     id="namedview9"
     pagecolor="#ffffff"
     bordercolor="#666666"
     borderopacity="1.0"
     inkscape:pageshadow="2"
     inkscape:pageopacity="0.0"
     inkscape:pagecheckerboard="0"
     showgrid="false"
     inkscape:zoom="0.40136719"
     inkscape:cx="1024"
     inkscape:cy="1024"
     inkscape:window-width="1920"
     inkscape:window-height="1002"
     inkscape:window-x="-8"
     inkscape:window-y="-8"
     inkscape:window-maximized="1"
     inkscape:current-layer="svg7" />
  <style
     id="style2">
		.s0 { fill: #b94e1f } 
		.s1 { fill: #252525 } 
	</style>
  <g
     id="Background"
     transform="matrix(1.2080316,0,0,1.2080316,-213.06549,-213.06499)">
    <path
       id="Path 1"
       class="s0"
       d="m 1254.92,344.43 c -4.08,1.74 -45.45,22.17 -91.92,45.39 -46.47,23.23 -85.4,42.87 -86.5,43.66 -1.96,1.41 -1.93,1.52 1.42,5.23 1.88,2.08 8.18,8.96 14,15.28 5.82,6.32 17.34,18.47 25.6,27 8.26,8.53 21.98,22.93 30.5,32 8.51,9.07 24.28,25.49 35.02,36.5 10.75,11 19.98,20.16 20.5,20.33 0.53,0.18 1.93,-3.19 3.11,-7.5 1.18,-4.3 4.72,-17.49 7.87,-29.32 3.15,-11.83 8.54,-32.3 11.99,-45.5 3.44,-13.2 11,-41.77 16.79,-63.5 5.8,-21.73 12.41,-46.93 14.7,-56 2.29,-9.07 4.46,-18.67 4.83,-21.32 0.37,-2.65 0.41,-4.96 0.09,-5.13 -0.33,-0.16 -3.93,1.13 -8,2.88 z m 51.23,0.82 c -0.54,1.79 -2.63,9.55 -4.65,17.25 -2.01,7.7 -5.85,22.1 -8.52,32 -2.67,9.9 -6.46,24.3 -8.42,32 -1.97,7.7 -4.85,18.73 -6.42,24.5 -1.57,5.77 -5,18.6 -7.62,28.5 -2.62,9.9 -6.53,24.52 -8.68,32.5 -2.15,7.98 -7.04,26.99 -10.87,42.25 -3.84,15.26 -6.97,27.98 -6.97,28.25 0,0.27 0.56,0.51 1.25,0.52 0.69,0 13.17,-3.4 27.75,-7.58 14.57,-4.18 35.95,-10.28 47.5,-13.56 11.55,-3.28 31.35,-8.92 44,-12.53 12.65,-3.6 32.45,-9.18 44,-12.4 11.55,-3.21 31.12,-8.79 43.5,-12.39 12.37,-3.59 24.19,-6.99 26.25,-7.55 L 1482,516 c -4.45,-5.81 -29.76,-31.52 -59.12,-60.88 -29.36,-29.36 -67.22,-66.82 -84.13,-83.25 -16.91,-16.43 -30.95,-29.87 -31.19,-29.87 -0.24,0 -0.88,1.46 -1.41,3.25 z m -246.06,303.44 c -0.06,91.75 -0.34,179.41 -0.64,194.81 -0.29,15.4 -0.17,54.1 0.26,86 l 0.79,58 c 3.69,-10.85 5.1,-14.45 5.51,-15 0.4,-0.55 2.11,-4.83 3.8,-9.5 1.68,-4.67 4.71,-13 6.73,-18.5 2.02,-5.5 7.49,-21.02 12.17,-34.5 4.67,-13.48 10.42,-30.12 12.79,-37 2.37,-6.87 7.55,-21.73 11.51,-33 3.96,-11.27 10.72,-30.62 15.02,-43 4.3,-12.37 11.73,-33.52 16.52,-47 4.79,-13.48 14.22,-40.48 20.96,-60 6.74,-19.52 13.83,-40 15.76,-45.5 1.93,-5.5 4.9,-13.83 6.61,-18.5 2.71,-7.44 2.93,-8.75 1.74,-10.5 -0.75,-1.1 -7.35,-8.3 -14.67,-16 -7.32,-7.7 -20.75,-21.87 -29.86,-31.5 -9.1,-9.62 -23.1,-24.25 -31.1,-32.5 -8,-8.25 -19.49,-20.14 -25.52,-26.43 -6.03,-6.28 -14.06,-14.38 -17.84,-18 -3.77,-3.61 -7.66,-7.16 -8.64,-7.88 -1.71,-1.25 -1.79,5.71 -1.9,165.5 z M 1482,558.04 c -4.13,1.01 -21,5.72 -37.5,10.48 -16.5,4.76 -38.55,11.04 -49,13.95 -10.45,2.92 -28.45,8.03 -40,11.36 -11.55,3.32 -28.43,8.15 -37.5,10.73 -9.08,2.57 -27.53,7.72 -41,11.44 -13.48,3.72 -29.23,8.19 -35,9.93 -5.78,1.74 -10.95,3.54 -11.5,3.99 -0.55,0.45 -2.97,6.39 -5.39,13.2 -2.41,6.81 -8.13,22.96 -12.71,35.88 -4.58,12.92 -13.03,37 -18.78,53.5 -5.75,16.5 -15.41,43.95 -21.47,61 -6.05,17.05 -16.18,45.85 -22.5,64 -6.32,18.15 -15.99,45.83 -21.49,61.5 -5.5,15.67 -12.32,35.02 -15.16,43 -2.84,7.98 -7.15,20.46 -9.58,27.75 -2.43,7.29 -4.42,13.92 -4.42,14.75 0,1.05 1.56,0.4 5.25,-2.2 2.89,-2.03 8.85,-6.15 13.25,-9.14 4.4,-3 14.03,-9.78 21.4,-15.06 7.36,-5.28 16.36,-11.81 20,-14.51 3.63,-2.7 20.77,-15.26 38.1,-27.91 17.32,-12.65 38.47,-28.09 47,-34.3 8.52,-6.22 26.75,-19.49 40.5,-29.5 13.75,-10.01 30.62,-22.31 37.5,-27.34 6.87,-5.02 15.32,-11.14 18.76,-13.59 3.45,-2.45 12.7,-9.18 20.57,-14.95 7.86,-5.77 20.34,-14.88 27.73,-20.24 7.39,-5.35 24.58,-17.84 38.19,-27.75 19.41,-14.12 25.16,-18.82 26.64,-21.76 1.04,-2.06 3.05,-9.6 4.46,-16.75 1.41,-7.15 5.08,-26.05 8.14,-42 3.06,-15.95 6.88,-35.52 8.48,-43.5 1.61,-7.98 5.4,-27.33 8.44,-43 3.04,-15.67 5.98,-31.42 6.55,-35 0.56,-3.58 1.03,-7.29 1.03,-8.25 0.01,-0.96 -0.33,-1.7 -0.74,-1.65 -0.41,0.06 -4.13,0.93 -8.25,1.94 z m -34.72,259.21 c 0.32,3.44 1.96,14.58 3.63,24.75 1.67,10.17 5.98,36.73 9.59,59 3.6,22.28 9.92,60.98 14.03,86 4.11,25.03 8.17,49.55 9.02,54.5 0.84,4.95 2.45,14.17 3.57,20.5 1.97,11.05 2.11,11.42 3.75,9.5 0.94,-1.1 4.65,-5.37 8.25,-9.5 3.59,-4.12 10.97,-13.35 16.39,-20.5 5.41,-7.15 12.1,-15.92 14.85,-19.5 2.75,-3.58 6.46,-8.3 8.24,-10.5 1.78,-2.2 9.24,-11.9 16.57,-21.55 7.33,-9.65 16.79,-22.02 21.02,-27.5 4.22,-5.47 11.54,-14.9 16.24,-20.95 4.71,-6.05 12.69,-16.4 17.74,-23 5.04,-6.6 11.25,-14.7 13.79,-18 2.54,-3.3 8.88,-11.62 14.08,-18.5 5.2,-6.87 12.16,-15.96 15.46,-20.18 3.3,-4.22 7.35,-9.55 9,-11.83 1.65,-2.28 2.92,-4.45 2.82,-4.82 -0.09,-0.37 -1.89,-1.17 -4,-1.78 -2.1,-0.62 -17.77,-3.22 -34.82,-5.8 -17.05,-2.57 -33.25,-5.13 -36,-5.68 -2.75,-0.55 -24.8,-3.88 -49,-7.41 -24.2,-3.52 -49.18,-7.11 -55.5,-7.99 -6.33,-0.88 -17.01,-2.47 -23.75,-3.55 -6.74,-1.08 -13,-1.96 -13.91,-1.96 -1.43,0 -1.58,0.86 -1.06,6.25 z m -52.56,24 c -6.45,4.54 -22.61,16.13 -35.92,25.75 -13.31,9.63 -28.27,20.45 -33.25,24.06 -4.98,3.61 -22.33,16.25 -38.55,28.08 -16.23,11.83 -35.8,26.09 -43.5,31.67 -7.7,5.59 -21.65,15.78 -31,22.65 -9.35,6.86 -28.03,20.44 -41.5,30.17 -13.48,9.73 -30.8,22.26 -38.5,27.85 -7.7,5.59 -18.95,13.59 -25,17.79 -6.05,4.19 -12.27,8.89 -13.82,10.43 l -2.82,2.8 c 6.7,5.69 17.06,13.34 27.34,20.67 10.29,7.33 28.71,20.3 40.95,28.83 12.24,8.53 27.68,19.35 34.3,24.06 6.63,4.71 18.28,12.81 25.89,18 7.61,5.19 19.53,13.45 26.5,18.36 6.96,4.9 18.51,13.03 25.66,18.06 7.15,5.03 19.97,14.02 28.5,19.97 8.52,5.95 21.12,14.76 28,19.57 6.87,4.82 14.2,9.6 16.27,10.62 l 3.77,1.86 c 5.01,-6.16 12.98,-15.43 20.96,-24.56 7.97,-9.14 25.97,-29.85 40,-46.02 14.02,-16.18 27.99,-32.11 31.03,-35.41 3.04,-3.31 7.5,-8.26 9.92,-11.01 l 4.39,-5 c -1.08,-13.17 -3.82,-31.4 -6.78,-49 -2.96,-17.6 -7.03,-42.35 -9.04,-55 -2.01,-12.65 -8.12,-50.45 -13.56,-84 -5.45,-33.55 -11.32,-69.1 -13.03,-79 -1.72,-9.9 -3.66,-18.56 -4.31,-19.25 -0.93,-0.99 -3.64,0.48 -12.9,7 z m 295.75,39.91 c -1.63,1.95 -4.77,5.73 -6.97,8.41 -2.2,2.68 -13.79,17.49 -25.75,32.9 -11.97,15.42 -24.19,31.18 -27.16,35.03 -2.97,3.85 -19.92,25.67 -37.66,48.5 -17.74,22.83 -39.48,50.95 -48.3,62.5 -8.82,11.55 -21.43,28.2 -28.03,37 -6.59,8.8 -16.5,21.4 -22.01,28 -5.51,6.6 -19.26,22.51 -30.56,35.35 -11.29,12.84 -24.36,27.72 -29.03,33.06 -4.68,5.35 -16.6,19.08 -26.5,30.52 -9.9,11.43 -19.31,22.65 -20.91,24.93 l -2.92,4.14 c 4.52,3.47 34.63,18.85 69.83,36.42 35.2,17.57 65.24,32.43 66.75,33.01 1.99,0.78 3.37,0.75 5,-0.09 1.24,-0.63 4.54,-3.22 7.35,-5.75 2.8,-2.52 12.02,-10.84 20.5,-18.47 8.47,-7.63 19.67,-17.79 24.9,-22.57 5.22,-4.78 16.92,-15.38 26,-23.56 9.07,-8.17 24.37,-22.08 34,-30.91 9.62,-8.83 19.3,-17.68 21.5,-19.66 2.2,-1.98 13.11,-12 24.25,-22.26 16.22,-14.95 20.47,-19.41 21.38,-22.41 0.77,-2.57 0.92,-9.11 0.45,-20.75 -0.38,-9.35 -1.11,-24.42 -1.62,-33.5 -0.51,-9.08 -1.38,-28.2 -1.94,-42.5 -0.55,-14.3 -1.22,-28.92 -1.48,-32.5 -0.26,-3.58 -0.7,-12.12 -0.99,-19 -0.29,-6.87 -0.77,-19.25 -1.08,-27.5 -0.3,-8.25 -0.97,-21.75 -1.48,-30 -0.51,-8.25 -1.44,-27.15 -2.07,-42 -0.63,-14.85 -1.44,-29.9 -1.81,-33.44 l -0.67,-6.44 z m -630.66,218.6 c -0.09,3.71 -0.13,7.87 -0.11,9.24 0.03,1.38 0.11,130.19 0.18,286.25 L 1060,1679 c 8.27,-5.81 13.11,-9.69 16.09,-12.36 2.97,-2.67 9.47,-8.75 14.44,-13.5 4.97,-4.75 12.17,-11.54 16,-15.09 3.83,-3.55 11.7,-10.97 17.49,-16.5 5.79,-5.53 16.59,-15.67 23.99,-22.55 7.41,-6.87 16.85,-15.7 20.98,-19.61 4.13,-3.91 11.14,-10.43 15.59,-14.5 4.44,-4.06 17.49,-16.19 29,-26.95 11.5,-10.76 23.84,-22.21 27.42,-25.43 3.57,-3.22 12.8,-11.76 20.5,-18.98 7.7,-7.22 16.46,-15.36 19.48,-18.08 3.01,-2.72 7.33,-6.75 9.59,-8.95 3.65,-3.54 4.36,-5.03 6.23,-13 1.16,-4.95 6.42,-33.97 11.69,-64.5 5.26,-30.52 10.71,-62.02 12.11,-70 1.39,-7.97 3.4,-19.22 4.46,-25 1.07,-5.77 1.92,-11.62 1.9,-13 -0.02,-1.95 -1.83,-3.83 -8.25,-8.59 -4.51,-3.36 -13.84,-9.91 -20.71,-14.57 -6.88,-4.66 -21.73,-14.92 -33,-22.81 -11.28,-7.89 -30.85,-21.61 -43.5,-30.5 -12.65,-8.88 -32.45,-22.68 -44,-30.67 -11.55,-7.99 -26.84,-18.54 -33.98,-23.44 -7.13,-4.91 -13.96,-9.59 -15.18,-10.42 -1.21,-0.82 -11.12,-7.77 -22.02,-15.44 -10.9,-7.67 -23.42,-16.46 -27.82,-19.54 -4.4,-3.07 -10.37,-7.03 -13.27,-8.8 l -5.26,-3.2 z m 304.95,201.11 c -0.18,0.47 -1.12,5.31 -2.09,10.75 -0.96,5.43 -3.74,21.36 -6.16,35.38 -2.42,14.03 -6.52,37.88 -9.11,53 -2.59,15.13 -5.75,34.03 -7.02,42 -1.28,7.98 -2.34,15.96 -2.35,17.75 -0.03,3.08 1.09,4.09 21.21,19.07 11.69,8.7 29.58,21.99 39.75,29.53 10.18,7.54 21.43,15.93 25,18.64 3.58,2.71 14.6,10.93 24.5,18.26 9.9,7.33 23.85,17.63 31,22.88 7.15,5.26 15.7,11.41 19,13.68 3.3,2.27 6.23,4.15 6.5,4.18 0.28,0.03 1.04,-1.64 1.7,-3.72 0.65,-2.07 3.22,-14.12 5.7,-26.77 2.48,-12.65 10.34,-53.6 17.46,-91 7.13,-37.4 13.22,-69.69 13.55,-71.75 0.54,-3.38 0.28,-3.99 -2.66,-6.15 -1.78,-1.33 -13.82,-7.79 -26.75,-14.37 -12.92,-6.57 -28.67,-14.33 -35,-17.23 -6.32,-2.91 -34,-16.48 -61.5,-30.17 -27.5,-13.68 -50.54,-24.87 -51.2,-24.85 -0.66,0.01 -1.35,0.41 -1.53,0.89 z m -53.48,200.35 c -2.08,1.77 -7.84,7.1 -12.79,11.85 -4.95,4.75 -11.92,11.25 -15.5,14.45 -3.57,3.2 -14.82,13.74 -25,23.44 -10.17,9.69 -21.87,20.73 -26,24.52 -4.12,3.8 -13.79,12.78 -21.49,19.96 -7.7,7.19 -18.06,16.89 -23.04,21.56 -4.97,4.68 -11.96,11.2 -15.52,14.5 -3.57,3.3 -9.41,8.7 -12.99,12 -3.57,3.3 -13.46,12.51 -21.98,20.47 -8.51,7.95 -21.65,20.55 -29.21,28 -7.55,7.44 -13.62,13.67 -13.5,13.85 0.13,0.18 5.18,-0.64 11.23,-1.81 6.05,-1.17 26.98,-5.95 46.5,-10.63 19.53,-4.67 39.1,-9.34 43.5,-10.36 4.4,-1.03 14.98,-3.48 23.5,-5.44 8.53,-1.97 26.98,-6.29 41,-9.62 14.03,-3.32 43.73,-10.27 66,-15.44 22.28,-5.16 47.03,-10.96 55,-12.87 7.98,-1.91 28.45,-6.7 45.5,-10.65 17.05,-3.94 34.95,-8.37 39.77,-9.83 4.83,-1.47 8.74,-2.89 8.71,-3.17 -0.03,-0.27 -4.81,-4.32 -10.61,-9 -5.8,-4.67 -18.51,-14.35 -28.25,-21.5 -9.74,-7.15 -25.34,-18.58 -34.66,-25.39 -9.33,-6.81 -19.88,-14.53 -23.46,-17.16 -3.57,-2.62 -17.75,-13.18 -31.5,-23.47 -13.75,-10.29 -26.23,-19.33 -27.75,-20.09 -1.51,-0.76 -2.95,-1.39 -3.21,-1.39 -0.25,0 -2.17,1.45 -4.25,3.22 z" />
    <path
       id="Path 2"
       class="s1"
       d="m 796.5,343.03 c -4.4,0.5 -12.5,1.87 -18,3.05 -5.5,1.18 -14.5,3.7 -20,5.6 -5.5,1.9 -14.95,5.81 -21,8.69 -6.05,2.88 -15.95,8.58 -22,12.67 -7.48,5.06 -15.01,11.45 -23.53,19.95 -7.56,7.55 -15.09,16.25 -19,21.96 -3.56,5.19 -9.64,15.77 -13.52,23.5 -5.76,11.47 -7.78,14.56 -11,16.82 -2.7,1.9 -6.48,3.23 -11.95,4.21 -4.4,0.78 -12.73,2.12 -18.5,2.97 -5.77,0.86 -15.23,2.91 -21,4.56 -5.77,1.66 -14.1,4.41 -18.5,6.11 -4.4,1.71 -12.5,5.36 -18,8.12 -5.5,2.76 -13.83,7.63 -18.5,10.84 -4.67,3.2 -12.33,9.24 -17,13.41 -4.67,4.17 -11.57,11.06 -15.31,15.3 -3.75,4.24 -9.23,11.31 -12.18,15.71 -2.95,4.4 -8.3,14.08 -11.89,21.5 -3.59,7.42 -8.08,18.23 -9.98,24 -1.9,5.78 -3.92,12.98 -4.51,16 -0.58,3.03 -1.56,10 -2.18,15.5 -0.65,5.74 -0.99,20.04 -0.79,33.56 l 0.34,23.56 c -5.4,8.77 -7.69,10.7 -14.5,14.63 -4.68,2.69 -11.43,6.98 -15,9.52 -3.57,2.54 -10.66,8.8 -15.75,13.92 -5.09,5.12 -12,13.02 -15.35,17.56 -3.36,4.54 -8.63,12.75 -11.73,18.25 -3.09,5.5 -7.6,14.95 -10.01,21 -2.41,6.05 -5.19,14.15 -6.17,18 -0.98,3.85 -2.57,11.73 -3.52,17.5 -1.41,8.51 -1.64,14.2 -1.19,30 0.39,14.07 1.1,22.01 2.54,28.5 1.09,4.95 3.83,14.74 6.08,21.75 2.26,7.01 4.1,14.66 4.09,17 0,2.34 -0.45,5.94 -1,8 -0.54,2.06 -3.22,6.56 -5.95,10 -2.73,3.44 -8.22,10.98 -12.2,16.75 -3.99,5.78 -9.36,15 -11.94,20.5 -2.57,5.5 -6.11,14.28 -7.84,19.5 -1.74,5.23 -4.13,14 -5.32,19.5 -1.82,8.46 -2.16,13.31 -2.19,31.5 -0.03,16.53 0.38,23.69 1.75,31 0.98,5.22 3.35,14.22 5.27,20 1.91,5.78 5.7,15 8.4,20.5 2.71,5.5 7.49,13.83 10.62,18.5 3.12,4.67 8.15,11.42 11.18,15 3.02,3.58 6.38,8.3 7.47,10.5 1.09,2.2 2.2,6.03 2.47,8.5 0.39,3.54 -0.48,7.48 -4.1,18.5 -2.53,7.7 -5.53,18.05 -6.68,23 -1.54,6.67 -2.23,13.93 -2.64,28 -0.38,12.62 -0.15,21.85 0.66,27.5 0.67,4.67 1.89,11.2 2.71,14.5 0.81,3.3 3.06,10.95 5,17 1.93,6.05 5.62,15.28 8.19,20.5 2.57,5.22 7.36,13.55 10.64,18.5 3.78,5.7 10.74,13.8 18.99,22.08 10.02,10.07 15.9,15 25.52,21.38 6.88,4.57 13.56,9.26 14.85,10.42 1.29,1.17 3.49,4.37 4.89,7.12 2.48,4.89 2.52,5.27 1.65,17 -0.49,6.6 -0.84,18.3 -0.77,26 0.07,8.01 0.83,18.06 1.78,23.5 0.91,5.22 2.38,12.42 3.26,16 0.88,3.58 3.51,11.45 5.83,17.5 2.33,6.05 5.71,13.92 7.5,17.5 1.8,3.58 6.08,10.78 9.52,16 3.44,5.22 9.6,13.33 13.68,18 4.09,4.67 10.93,11.65 15.22,15.5 4.28,3.85 9.88,8.5 12.44,10.32 2.56,1.83 8.7,5.85 13.65,8.92 4.95,3.08 11.48,6.83 14.5,8.34 3.02,1.51 9.33,4.16 14,5.88 4.67,1.73 13.67,4.49 20,6.14 6.33,1.65 17.8,3.67 25.5,4.48 7.7,0.81 15.58,1.9 17.5,2.41 1.92,0.52 5.3,2.68 7.5,4.8 2.41,2.32 6.35,8.4 9.89,15.28 3.25,6.29 8.73,15.71 12.2,20.93 3.46,5.22 10.49,13.96 15.6,19.4 5.12,5.45 14.04,13.57 19.81,18.05 5.77,4.48 12.75,9.56 15.5,11.29 2.75,1.74 10.63,5.83 17.5,9.11 6.88,3.27 16.89,7.34 22.25,9.05 5.36,1.7 15.49,4.25 22.5,5.66 8.04,1.61 17.92,2.77 26.75,3.14 8.32,0.35 18.87,0.09 26,-0.63 6.6,-0.67 16.05,-2.09 21,-3.16 4.95,-1.06 12.83,-3.1 17.5,-4.53 4.67,-1.42 13.23,-4.81 19,-7.54 5.77,-2.72 14.33,-7.25 19,-10.05 4.67,-2.81 11.2,-7.16 14.5,-9.68 3.3,-2.51 9.99,-8.41 14.86,-13.09 4.87,-4.69 11.9,-12.35 15.61,-17.02 3.71,-4.67 8.01,-10.53 9.55,-13 1.54,-2.47 5.38,-9.67 8.54,-16 3.16,-6.33 7.1,-15.78 8.75,-21 1.66,-5.22 4.07,-14.67 5.36,-21 l 2.33,-11.5 v -1064 c -3.49,-18.21 -6.32,-29.01 -8.55,-35.75 -2.22,-6.74 -6.71,-17.65 -9.96,-24.25 -3.25,-6.6 -8.96,-16.27 -12.68,-21.5 -3.73,-5.22 -11.28,-14.01 -16.79,-19.53 -5.51,-5.52 -13.85,-12.78 -18.52,-16.13 -4.67,-3.35 -12.55,-8.4 -17.5,-11.23 -4.95,-2.83 -12.37,-6.56 -16.5,-8.28 -4.12,-1.73 -11.66,-4.65 -16.75,-6.49 -5.09,-1.84 -14.76,-4.5 -21.5,-5.91 -10.04,-2.1 -15.68,-2.63 -31.25,-2.93 -10.45,-0.2 -22.6,0.04 -27,0.53 z" />
  </g>
</svg>
